<svg width="15" height="15" viewBox="0 0 15 15" fill="none" xmlns="http://www.w3.org/2000/svg">
<path d="M14.595 6.52428C14.5947 6.52393 14.5943 6.52359 14.594 6.52325L8.47519 0.404663C8.21438 0.143738 7.86762 0 7.49878 0C7.12994 0 6.78318 0.143623 6.52225 0.404549L0.406647 6.52004C0.404587 6.5221 0.402527 6.52428 0.400467 6.52634C-0.135116 7.06501 -0.134201 7.939 0.403099 8.4763C0.648575 8.72189 0.972786 8.86414 1.31943 8.87901C1.3335 8.88039 1.34769 8.88107 1.362 8.88107H1.60587V13.384C1.60587 14.275 2.33086 15 3.22212 15H5.616C5.85861 15 6.05545 14.8033 6.05545 14.5605V11.0303C6.05545 10.6237 6.38618 10.2929 6.79279 10.2929H8.20477C8.61137 10.2929 8.94211 10.6237 8.94211 11.0303V14.5605C8.94211 14.8033 9.13883 15 9.38156 15H11.7754C12.6667 15 13.3917 14.275 13.3917 13.384V8.88107H13.6178C13.9865 8.88107 14.3333 8.73745 14.5943 8.47652C15.1322 7.93831 15.1324 7.06284 14.595 6.52428V6.52428Z" fill="black"/>
</svg>
