<svg width="20" height="20" viewBox="0 0 20 20" fill="none" xmlns="http://www.w3.org/2000/svg">
<path d="M19 17H1C0.448007 17 0 17.448 0 18C0 18.552 0.448007 19 1 19H19C19.552 19 20 18.552 20 17.9999C20 17.448 19.552 17 19 17ZM1 2.99997H19C19.552 2.99997 20 2.552 20 1.99997C20 1.44794 19.552 0.999969 19 0.999969H1C0.448007 1 0 1.44798 0 2C0 2.552 0.448007 2.99997 1 2.99997ZM19 8.99997H1C0.448007 8.99997 0 9.44798 0 10C0 10.552 0.448007 11 1 11H19C19.552 11 20 10.552 20 10C20 9.44801 19.552 8.99997 19 8.99997Z" fill="#FFC93C"/>
</svg>
