<svg width="15" height="15" viewBox="0 0 15 15" fill="none" xmlns="http://www.w3.org/2000/svg">
<path d="M14.9785 5.779C14.9268 5.61989 14.7893 5.50393 14.6237 5.47991L9.97368 4.80415L7.89408 0.590501C7.82004 0.440502 7.66729 0.345551 7.50001 0.345551C7.33275 0.345551 7.17997 0.440502 7.10594 0.590501L5.02621 4.80418L0.376256 5.47994C0.210758 5.50396 0.0731802 5.61992 0.0215299 5.779C-0.0301789 5.93811 0.012946 6.11275 0.132711 6.2295L3.49739 9.5094L2.70321 14.1407C2.67494 14.3056 2.74273 14.4722 2.87806 14.5705C3.01338 14.6688 3.19273 14.6818 3.34086 14.604L7.49998 12.4173L11.659 14.6039C11.7233 14.6377 11.7935 14.6544 11.8634 14.6544C11.9546 14.6544 12.0453 14.6261 12.1218 14.5705C12.2571 14.4722 12.3249 14.3056 12.2966 14.1407L11.5022 9.50942L14.8672 6.2295C14.987 6.11272 15.0302 5.93808 14.9785 5.779Z" fill="#FFC93C"/>
</svg>
